<svg width="60" height="49" viewBox="0 0 60 49" fill="none" xmlns="http://www.w3.org/2000/svg">
<g clip-path="url(#clip0_154_537)">
<path d="M23.3689 42.5028C22.6539 42.415 22.1452 42.8028 21.607 43.1832C19.1817 44.9027 16.4909 45.949 13.4832 45.7221C7.71099 45.2905 3.59009 40.0736 4.80645 34.3593C5.33723 31.857 5.04973 30.2546 2.86764 28.7693C1.20896 27.6352 0.597091 25.6597 0.20638 23.6988C-0.965755 17.7357 3.00771 10.1337 8.47029 7.90207C9.18537 7.5655 9.51711 7.88744 9.64243 8.56789C9.71615 8.97763 9.69403 9.402 9.82673 9.80442C9.97417 10.2654 10.2248 10.6605 10.7482 10.7556C11.1684 10.8361 11.478 10.6385 11.6918 10.2946C11.9793 9.84832 11.8835 9.41663 11.6255 8.98495C11.3011 8.43619 10.6229 8.14352 10.446 7.40454C12.1046 6.63628 13.8665 6.70945 15.4441 7.28015C16.7563 7.75574 17.3313 7.1704 18.0096 6.39483C18.7541 5.75096 19.5134 5.12172 20.0811 4.30957C20.892 3.71691 21.526 2.83159 22.6612 2.76574C23.3394 3.29986 22.8308 3.79008 22.5433 4.1925C21.607 5.48756 21.032 6.82652 21.5554 8.45083C21.8429 9.32883 21.1131 9.65808 20.575 10.0751C20.2064 10.3971 20.0589 10.8288 19.9631 11.2897C19.823 11.9628 19.5945 12.7092 20.3022 13.1921C20.9436 13.6311 21.5407 13.2799 22.0715 12.8628C22.6514 11.7897 23.5557 11.4458 24.7843 11.8311C26.5978 12.4018 29.0011 11.6336 30.3354 10.0751C30.6008 9.76783 30.7187 9.3142 31.1979 9.2264C31.6845 9.43858 31.5591 10.3166 32.1931 10.2581C33.321 10.1483 34.4121 10.5068 35.5178 10.3898C35.938 10.3459 35.7685 9.98002 35.6579 9.73125C35.1493 8.59716 33.4242 8.03377 32.3406 8.64106C31.9867 8.83861 31.7139 9.2264 31.2274 9.07275C31.0505 8.80934 31.1242 8.56058 31.2274 8.28986C32.1857 5.89729 31.7434 4.2803 29.6645 2.64868C29.5466 2.58282 29.436 2.50966 29.3181 2.43649C28.8168 2.02676 28.1681 2.16577 27.6078 1.99749C27.276 1.89505 26.7748 1.99749 26.6937 1.54385C26.6052 1.039 27.0475 0.863398 27.4382 0.702431C28.0943 0.59268 28.7136 0.307329 29.3992 0.380496C30.2322 0.380496 31.0652 0.365862 31.8982 0.395129C35.6505 0.856082 38.7615 2.34869 40.7077 5.74364C41.5702 7.25089 42.1452 8.83861 42.2189 10.5873C42.2337 11.4799 42.2189 12.3653 42.2263 13.2579C42.0346 15.0724 41.8872 16.8943 41.1868 18.6137C41.0689 18.9137 40.7372 19.2576 41.15 19.6015C41.4006 19.8868 41.6587 20.1722 41.9093 20.4575C41.1058 20.5161 40.575 20.8453 40.1032 21.5916C39.2702 22.9086 37.9285 23.8232 36.9333 25.0305C35.4515 25.7036 33.9034 26.289 32.8566 27.6279C32.0973 28.0742 31.338 28.5279 30.4976 28.8279C29.0232 29.3473 28.5956 30.6717 29.4729 31.974C29.6424 32.2301 30.0037 32.3838 29.871 32.7862C29.2075 32.9764 28.7578 33.3276 28.603 34.0739C28.4482 34.7983 28.1386 35.4787 27.8363 36.1592C27.335 37.286 27.3866 37.3665 28.6915 37.3957C29.296 37.4104 29.9078 37.3591 30.5123 37.425C30.9473 37.4689 31.5002 37.3738 31.5886 38.0469C30.5713 38.7054 29.4213 38.3835 28.345 38.3835C27.1655 38.3835 26.2882 38.7127 25.6763 39.7517C25.0718 40.798 24.1061 41.5589 23.3689 42.5028Z" fill="#419531"/>
<path d="M23.3689 42.5028C23.3395 42.3272 23.2215 42.0565 23.2952 41.9833C24.401 40.9151 25.2709 39.6639 26.2145 38.464C26.5389 38.0469 27.0254 38.0835 27.4972 38.0762C28.8463 38.0615 30.1953 38.0396 31.5518 38.0176C32.1268 37.5274 32.7902 37.7103 33.4316 37.7908C35.9528 38.1201 38.3634 38.881 40.7445 39.7371C41.3269 39.9492 41.9019 40.1395 42.5064 39.8322C42.875 39.6419 43.3763 39.4956 43.3468 39.0054C43.3173 38.581 42.8382 38.5005 42.4917 38.3835C40.5013 37.6957 38.5256 36.964 36.5868 36.1372C34.6922 35.3324 32.805 34.5056 30.9325 33.6642C30.505 33.474 29.8783 33.4301 29.8415 32.7496C28.3524 32.0399 28.7578 30.7156 28.7799 29.5229C28.7799 29.2303 28.9716 28.9888 29.2444 28.8791C30.4828 28.3815 31.7213 27.9059 32.9598 27.423C33.1294 27.2767 33.3284 27.2401 33.5495 27.2621C36.1445 28.1328 38.6141 29.2815 41.0542 30.5034C41.5554 30.796 42.1526 30.8838 42.6539 31.2424C42.4253 30.9643 42.1157 30.8765 41.8282 30.7521C39.8304 29.2083 38.0833 27.445 36.7342 25.3012C36.7342 25.1622 36.7858 25.0451 36.8669 24.9354C36.9259 24.2549 37.5156 23.9476 37.9063 23.5086C38.6141 22.7111 39.6093 22.1331 40.0295 21.1307C40.4497 20.1283 41.0099 19.938 41.9093 20.4575C44.2904 22.2794 46.3398 24.4305 48.2639 26.7133C50.6008 29.4937 53.0556 32.0618 56.3361 33.891C59.565 35.6909 60.0147 39.0786 60 42.415C59.9852 45.488 57.9948 47.3611 55.4368 48.5683C53.1736 49.6366 51.0431 48.5025 49.0085 47.5952C47.6078 46.9733 46.2661 46.1904 44.9539 45.3929C43.7891 44.6758 42.5801 44.4124 41.2237 44.4637C36.1666 44.6612 31.1242 44.5222 26.1629 43.3588C25.2119 43.1393 24.2388 42.971 23.3616 42.4955L23.3689 42.5028Z" fill="#2C6022"/>
<path d="M22.5433 2.88279C21.6955 3.30716 20.951 3.86323 20.2801 4.52905C19.543 5.10707 18.8869 5.76557 18.2971 6.48992C17.9948 6.77528 17.6263 7.01673 17.4051 7.3533C17.0586 7.88742 16.749 7.924 16.1445 7.68255C14.39 6.98746 12.5691 6.82649 10.7409 7.43378C11.139 7.84352 11.5371 8.22398 11.8909 8.64104C12.3848 9.21906 12.547 9.84829 12.0826 10.5434C11.7435 11.0556 11.3012 11.3409 10.6745 11.2312C9.85626 11.0921 9.55401 10.4556 9.37708 9.76781C9.28862 9.41661 9.31074 9.02882 9.34022 8.66299C9.3992 7.99717 8.97163 7.90205 8.47034 7.88742C10.6967 6.59236 13.0925 6.48992 15.4958 7.10453C16.55 7.37525 17.066 7.06063 17.7295 6.29969C22.0641 1.33896 27.4678 -1.01702 34.0804 0.409739C39.226 1.52188 42.5212 5.90459 42.5359 11.1434C42.5359 14.0408 42.219 16.8797 41.15 19.6015C40.3391 18.9942 40.9952 18.2479 41.1721 17.7503C41.6734 16.3602 41.7029 14.9115 41.9536 13.4993C42.1747 12.4677 42.1747 11.4433 41.9536 10.4117C41.6587 8.65567 41.1648 6.98014 40.1622 5.48022C38.3856 2.82425 35.8939 1.31701 32.7166 0.921909C32.5028 0.892642 32.3037 0.753624 32.0973 0.665824C31.1611 0.417056 30.2249 0.439006 29.2886 0.658507C28.6178 0.614607 28.0207 1.09751 27.3277 0.951175C25.7501 1.63895 24.2389 2.48037 22.5507 2.89742L22.5433 2.88279Z" fill="#72B067"/>
<path d="M25.6322 20.4575C25.9565 20.4575 26.2883 20.4868 26.6126 20.4575C29.5024 20.2088 30.8146 21.2624 30.9547 24.211C31.139 28.1474 27.512 30.4082 24.3126 28.8791C21.9978 27.7742 21.5186 25.8426 22.3148 23.4427C22.8824 21.7306 23.8776 20.9843 25.3594 20.4648C25.4479 20.377 25.5437 20.377 25.6322 20.4648V20.4575Z" fill="#4DA13D"/>
<path d="M22.5433 2.88277C23.9882 1.87306 25.5731 1.20724 27.3203 0.936523C26.9296 1.45601 26.9738 1.37553 27.3277 1.58039C28.028 1.98281 29.0822 1.34626 29.554 2.34865C29.0895 2.75107 28.5735 2.4584 28.0796 2.45108C26.8927 2.43645 25.4699 3.2925 25.0792 4.38269C24.6885 5.48752 24.7254 6.57039 25.6026 7.49229C26.6494 8.59712 28.404 8.69224 29.6572 7.70448C30.9251 6.69477 31.1979 5.19485 30.3796 3.87052C30.0774 3.3803 29.4286 3.06569 29.5613 2.34865C31.8466 3.29982 32.8566 6.46064 31.5002 8.40688C31.3748 8.58248 31.3453 8.82394 31.2643 9.03612C31.3232 9.10197 31.338 9.16051 31.3159 9.21904C31.2937 9.27757 31.2716 9.30684 31.2495 9.30684C29.5982 12.3506 26.6863 13.1188 22.9635 11.4433C22.6096 11.9774 23.1257 12.9067 22.2484 13.214C22.1452 13.1115 22.0567 12.9798 22.0789 12.8481C22.3737 11.3189 21.666 10.397 20.2875 9.86291C21.2237 9.42391 21.4227 8.75077 21.0689 7.78496C20.6118 6.52649 21.3195 5.51678 21.9019 4.47049C22.1747 3.97296 22.9635 3.65834 22.5359 2.88277H22.5433Z" fill="#4DA13D"/>
<path d="M22.1895 33.3057C22.1158 33.774 21.784 33.9861 21.0763 33.6496C19.9853 33.1228 18.8721 32.6106 17.9506 31.835C15.6137 29.8595 13.1958 30.3644 10.7704 31.5277C10.0258 31.8862 9.38448 32.4643 8.70626 32.9472C8.35978 33.1959 8.11651 33.774 7.54887 33.313C7.03283 32.8959 6.95174 32.3691 7.28348 31.8277C7.5931 31.3155 7.93221 30.8107 8.31555 30.3497C10.763 27.3865 16.3878 25.8646 19.5503 28.3303C21.0984 29.5376 21.9757 31.1107 22.1969 33.3057H22.1895Z" fill="#2D7422"/>
<path d="M8.16807 17.8162C7.7921 15.548 10.4165 13.4701 13.4906 13.214C15.3925 13.053 16.8596 13.814 17.9801 15.27C18.5698 16.0382 18.5625 16.7845 17.6483 17.3918C16.2182 18.3357 14.5816 18.4015 12.9598 18.504C12.2595 18.5479 11.6845 18.5771 11.5002 19.4332C11.3454 20.1649 11.1168 20.8746 10.0626 20.7721C9.0527 20.6697 8.61038 19.9966 8.31551 19.199C8.1607 18.782 8.20493 18.2845 8.16807 17.8308V17.8162Z" fill="#2C7422"/>
<path d="M38.2824 18.9942C38.2603 20.5819 36.8965 21.877 35.282 21.855C33.675 21.8331 32.3333 20.4941 32.3701 18.943C32.407 17.2601 33.5644 16.2577 35.4295 16.2724C37.1692 16.287 38.3045 17.3772 38.2824 18.9942Z" fill="#7AB56E"/>
<path d="M25.6321 20.4575C25.5436 20.4575 25.4478 20.4575 25.3593 20.4575C24.8433 20.4575 24.3273 20.4941 23.8186 20.4429C22.6833 20.3258 22.1304 20.7429 22.2631 21.9282C22.3368 22.5648 22.2189 23.2525 21.5112 23.3842C20.8919 23.5013 20.575 22.8647 20.3022 22.3892C19.2922 20.6331 19.7051 18.2186 21.1426 17.3845C23.0298 16.2943 25.6173 17.0406 26.7305 18.9722C27.5193 20.3405 26.0228 19.9673 25.6321 20.4429V20.4575Z" fill="#2E7523"/>
<path d="M11.5739 23.4574C11.5739 21.9794 12.429 21.0428 13.8075 21.0282C15.3778 21.0063 16.6089 22.1111 16.6162 23.5305C16.6162 24.9134 15.4294 26.0475 13.9845 26.0475C12.4143 26.0475 11.5812 25.1548 11.5739 23.4574Z" fill="#70AF64"/>
<path d="M19.3939 11.7285C19.3939 10.4817 20.1134 9.69163 21.2732 9.67929C22.5943 9.66077 23.6301 10.5928 23.6363 11.7903C23.6363 12.9569 22.6378 13.9136 21.4221 13.9136C20.101 13.9136 19.4001 13.1605 19.3939 11.7285Z" fill="#70AF64"/>
<path d="M1.18683 19.9746C1.16472 18.8698 2.32948 17.6991 3.49424 17.6699C4.62952 17.6333 5.62472 18.5698 5.66158 19.7039C5.69844 20.7429 4.21669 22.9306 3.46475 22.9525C2.55801 22.9818 1.21632 21.2258 1.18683 19.9746Z" fill="#77B76C"/>
<path d="M18.3266 38.881C17.4124 39.2029 16.4541 39.4005 15.6284 39.9419C14.9945 40.3589 14.3679 40.3077 13.8518 39.8102C13.2768 39.2614 13.1073 38.559 13.4021 37.7835C13.8592 36.5982 15.1272 35.8958 16.4394 36.1079C17.7147 36.3128 18.2897 37.1615 18.3266 38.881Z" fill="#2E7623"/>
<path d="M31.2495 9.29954C31.2495 9.21174 31.2569 9.11662 31.2643 9.02882C33.0777 7.55816 34.9871 7.76303 36.0044 9.53367C36.2108 9.89219 36.4615 10.2946 36.2182 10.7043C35.9528 11.1507 35.5547 10.7336 35.2303 10.7775C34.213 10.9019 33.2768 10.3531 32.1636 10.7629C31.338 11.0629 31.2716 9.99463 31.2569 9.29954H31.2495Z" fill="#317B25"/>
<path d="M37.4567 6.47529C37.641 7.59475 36.6974 7.81425 35.9012 7.82156C35.0977 7.82156 34.3457 7.36061 34.3752 6.38017C34.4121 5.42168 34.9945 4.88756 35.9749 4.84366C37.0365 4.79976 37.4788 5.37047 37.4567 6.47529Z" fill="#68AA5B"/>
<path d="M18.3265 38.881C19.1596 38.4347 19.9852 37.9225 20.7814 38.9541C21.2679 39.5761 21.29 40.2346 20.892 40.8711C20.516 41.4857 19.8599 41.4857 19.2701 41.3467C18.5035 41.1638 18.1644 40.5346 18.098 39.8102C18.0685 39.5102 18.2381 39.1883 18.3192 38.881H18.3265Z" fill="#68AB5C"/>
<path d="M10.9841 38.2152C10.0848 37.0664 8.01325 37.2201 8.93474 35.3763C9.25173 34.7397 10.0405 34.8275 10.5566 35.0909C11.9867 35.8153 10.8662 36.9201 10.9915 38.2225L10.9841 38.2152Z" fill="#6BB05E"/>
<path d="M31.3453 15.7456C30.9841 15.27 30.645 14.7798 30.2543 14.3261C29.9594 13.9895 29.7751 13.6457 29.9078 13.2067C29.9963 12.9213 30.1879 12.7164 30.4975 12.7091C31.0431 12.6872 31.3085 13.0823 31.537 13.492C31.8982 14.1213 31.8687 14.7944 31.7508 15.4748C31.6181 15.57 31.478 15.6578 31.3453 15.7529V15.7456Z" fill="#62A855"/>
<path d="M36.8595 24.9354C36.8448 25.0305 36.8374 25.1329 36.8227 25.228C35.938 26.2963 34.4489 26.4792 33.4906 27.4523C33.3063 27.4377 33.122 27.4304 32.945 27.4157C32.9155 27.284 32.8123 27.0718 32.8566 27.0353C34.0582 26.0987 35.2156 25.0597 36.8521 24.9354H36.8595Z" fill="#B4D3AE"/>
<path d="M18.2971 6.49726C18.6878 5.57535 19.3439 4.90953 20.2802 4.53638C19.7641 5.3339 19.108 5.9924 18.2971 6.49726Z" fill="#4DA13D"/>
<path d="M41.9462 10.4117C42.359 11.4433 42.3369 12.4677 41.9462 13.4993C41.9462 12.4677 41.9462 11.4433 41.9462 10.4117Z" fill="#4DA13D"/>
<path d="M29.2812 0.651208C30.2175 0.263423 31.1611 0.241472 32.0899 0.658525C31.1537 0.658525 30.2175 0.658525 29.2812 0.651208Z" fill="#4DA13D"/>
<path d="M41.0763 30.8033C41.3491 30.6643 41.7545 30.9058 41.9388 30.5107C42.6907 30.6204 43.1257 31.1253 43.6933 31.9228C42.6023 31.6082 41.8135 31.2716 41.0763 30.8033Z" fill="#B4C7B1"/>
<path d="M27.593 26.962C27.4235 27.4084 27.4235 28.0522 26.7379 28.1693C26.2808 28.2425 25.2782 26.9547 25.3888 26.4572C25.5215 25.8499 25.9196 25.4475 26.561 25.5207C27.3424 25.6085 27.6299 26.1572 27.5857 26.962H27.593Z" fill="#6CB25F"/>
<path d="M29.554 2.34137C30.5492 3.43887 31.6402 4.48516 31.1242 6.2119C30.5934 7.99718 28.5514 9.17517 26.7305 8.69227C25.1456 8.27522 24.1061 6.31434 24.5484 4.58028C24.9613 2.96329 26.9959 1.80725 28.7357 2.20235C29.0084 2.26088 29.2812 2.29747 29.554 2.34868V2.34137Z" fill="#89C27E"/>
</g>
<defs>
<clipPath id="clip0_154_537">
<rect width="60" height="49" fill="white"/>
</clipPath>
</defs>
</svg>
